<svg xmlns="http://www.w3.org/2000/svg" viewBox="0 0 166.854 166.854">
  <defs>
    <style>.a5585e6b-6396-4a97-b25e-a77da2c2e72d{fill:#fff;}</style>
  </defs>
  
  <g id="a3051ee6-f5dd-4cc3-b443-3d47097d4985" data-name="Layer 2">
    <g id="ff4aad5f-df01-42a3-8ea1-bf95d21f1810" data-name="Layer 1">
      <circle class="a5585e6b-6396-4a97-b25e-a77da2c2e72d" cx="83.427" cy="83.427" r="81.427"/>
      <path d="M83.427,4A79.427,79.427,0,1,1,4,83.427,79.517,79.517,0,0,1,83.427,4m0-4a83.427,83.427,0,1,0,83.427,83.427A83.428,83.428,0,0,0,83.427,0Z"/>
      <path d="M83.427,107.223l47.34-42.46a2.687,2.687,0,0,1,1.761-.518c2.348,0,4.108,2.331,4.108,5.438a5.565,5.565,0,0,1-1.956,4.4L86.557,117.06a3.931,3.931,0,0,1-6.26,0L32.175,74.084a5.563,5.563,0,0,1-1.957-4.4c0-3.107,1.761-5.438,4.109-5.438a2.684,2.684,0,0,1,1.76.518Z"/>
    </g>
  </g>
</svg>