<svg id="a766fac7-c451-4002-b8b9-f3669bea93bd" data-name="Layer 1" xmlns="http://www.w3.org/2000/svg" viewBox="0 0 166.854 166.854">
  <defs>
    <style>.fe7f3188-3cfc-4448-b327-15202d5bc752{fill:#fff;}</style>
  </defs>

  <g id="ac27ca1d-e7ef-4121-b79a-71d3a8e2cca5" data-name="a3051ee6-f5dd-4cc3-b443-3d47097d4985">
    <g id="eb2dff06-7c2e-4653-8da0-be89b7ec2917" data-name="ff4aad5f-df01-42a3-8ea1-bf95d21f1810">
      <circle class="fe7f3188-3cfc-4448-b327-15202d5bc752" cx="83.427" cy="83.427" r="81.427"/>
      
      <path d="M83.427,162.854a79.427,79.427,0,1,1,79.427-79.427,79.427,79.427,0,0,1-79.427,79.427m0,4A83.427,83.427,0,1,0,0,83.427,83.428,83.428,0,0,0,83.427,166.854Z" transform="translate(0)"/>
      
      <path d="M83.427,59.631l-47.34,42.46a2.689,2.689,0,0,1-1.761.518c-2.348,0-4.108-2.331-4.108-5.438a5.565,5.565,0,0,1,1.956-4.4L80.3,49.794a3.931,3.931,0,0,1,6.26,0L134.679,92.77a5.564,5.564,0,0,1,1.957,4.4c0,3.107-1.761,5.438-4.109,5.438a2.688,2.688,0,0,1-1.76-.518Z" transform="translate(0)"/>
    </g>
  </g>
</svg>